<svg xmlns="http://www.w3.org/2000/svg" viewBox="0 0 48 48">
  <defs>
    <linearGradient id="g" x1="0" y1="0" x2="1" y2="1">
      <stop offset="0" stop-color="#FFA552"/>
      <stop offset="1" stop-color="#FF5E7E"/>
    </linearGradient>
  </defs>
  <path d="M24.5 11C24.5 7 23.5 5 25.5 2.5" fill="none" stroke="#21B26F" stroke-width="2.6" stroke-linecap="round"/>
  <path d="M24.8 6C21 2 16.6 3 16 5C18.6 7.8 22.4 8 24.8 6Z" fill="#3DD68C"/>
  <path d="M25.4 4.6C28.4 0.6 33.2 1.2 33.8 3.4C31.4 6 28.2 6.4 25.4 4.6Z" fill="#2ED3A0"/>
  <rect x="3" y="9.5" width="42" height="36.5" rx="15" fill="url(#g)"/>
  <circle cx="17" cy="25" r="6.2" fill="#fff"/>
  <circle cx="31" cy="25" r="6.2" fill="#fff"/>
  <circle cx="18" cy="26" r="3.3" fill="#2A2350"/>
  <circle cx="32" cy="26" r="3.3" fill="#2A2350"/>
  <circle cx="16.8" cy="24.6" r="1.2" fill="#fff"/>
  <circle cx="30.8" cy="24.6" r="1.2" fill="#fff"/>
  <ellipse cx="10.5" cy="33" rx="3.2" ry="2" fill="#FF6FA8" opacity=".6"/>
  <ellipse cx="37.5" cy="33" rx="3.2" ry="2" fill="#FF6FA8" opacity=".6"/>
  <path d="M19.5 34.2Q24 39 28.5 34.2" fill="none" stroke="#2A2350" stroke-width="2.6" stroke-linecap="round"/>
</svg>
